<svg width="88" height="45" viewBox="0 0 88 45" fill="none" xmlns="http://www.w3.org/2000/svg">
<path d="M1 25C0.734784 25 0.48043 24.8946 0.292893 24.7071C0.105357 24.5196 0 24.2652 0 24V18C0 17.7348 0.105357 17.4804 0.292893 17.2929C0.48043 17.1054 0.734784 17 1 17C1.26522 17 1.51957 17.1054 1.70711 17.2929C1.89464 17.4804 2 17.7348 2 18V24C2 24.2652 1.89464 24.5196 1.70711 24.7071C1.51957 24.8946 1.26522 25 1 25Z" fill="black"/>
<path d="M5 28C4.73478 28 4.48043 27.8946 4.29289 27.7071C4.10536 27.5196 4 27.2652 4 27V15C4 14.7348 4.10536 14.4804 4.29289 14.2929C4.48043 14.1054 4.73478 14 5 14C5.26522 14 5.51957 14.1054 5.70711 14.2929C5.89464 14.4804 6 14.7348 6 15V27C6 27.2652 5.89464 27.5196 5.70711 27.7071C5.51957 27.8946 5.26522 28 5 28Z" fill="black"/>
<path d="M9 25C8.73478 25 8.48043 24.8946 8.29289 24.7071C8.10536 24.5196 8 24.2652 8 24V18C8 17.7348 8.10536 17.4804 8.29289 17.2929C8.48043 17.1054 8.73478 17 9 17C9.26522 17 9.51957 17.1054 9.70711 17.2929C9.89464 17.4804 10 17.7348 10 18V24C10 24.2652 9.89464 24.5196 9.70711 24.7071C9.51957 24.8946 9.26522 25 9 25Z" fill="black"/>
<path d="M13 29C12.7348 29 12.4804 28.8946 12.2929 28.7071C12.1054 28.5196 12 28.2652 12 28V14C12 13.7348 12.1054 13.4804 12.2929 13.2929C12.4804 13.1054 12.7348 13 13 13C13.2652 13 13.5196 13.1054 13.7071 13.2929C13.8946 13.4804 14 13.7348 14 14V28C14 28.2652 13.8946 28.5196 13.7071 28.7071C13.5196 28.8946 13.2652 29 13 29Z" fill="black"/>
<path d="M17 32C16.7348 32 16.4804 31.8946 16.2929 31.7071C16.1054 31.5196 16 31.2652 16 31V11C16 10.7348 16.1054 10.4804 16.2929 10.2929C16.4804 10.1054 16.7348 10 17 10C17.2652 10 17.5196 10.1054 17.7071 10.2929C17.8946 10.4804 18 10.7348 18 11V31C18 31.2652 17.8946 31.5196 17.7071 31.7071C17.5196 31.8946 17.2652 32 17 32Z" fill="black"/>
<path d="M71 24C70.7348 24 70.4804 23.8946 70.2929 23.7071C70.1054 23.5196 70 23.2652 70 23V17C70 16.7348 70.1054 16.4804 70.2929 16.2929C70.4804 16.1054 70.7348 16 71 16C71.2652 16 71.5196 16.1054 71.7071 16.2929C71.8946 16.4804 72 16.7348 72 17V23C72 23.2652 71.8946 23.5196 71.7071 23.7071C71.5196 23.8946 71.2652 24 71 24Z" fill="black"/>
<path d="M75 28C74.7348 28 74.4804 27.8946 74.2929 27.7071C74.1054 27.5196 74 27.2652 74 27V13C74 12.7348 74.1054 12.4804 74.2929 12.2929C74.4804 12.1054 74.7348 12 75 12C75.2652 12 75.5196 12.1054 75.7071 12.2929C75.8946 12.4804 76 12.7348 76 13V27C76 27.2652 75.8946 27.5196 75.7071 27.7071C75.5196 27.8946 75.2652 28 75 28Z" fill="black"/>
<path d="M79 31C78.7348 31 78.4804 30.8946 78.2929 30.7071C78.1054 30.5196 78 30.2652 78 30V10C78 9.73479 78.1054 9.48043 78.2929 9.2929C78.4804 9.10536 78.7348 9 79 9C79.2652 9 79.5196 9.10536 79.7071 9.2929C79.8946 9.48043 80 9.73479 80 10V30C80 30.2652 79.8946 30.5196 79.7071 30.7071C79.5196 30.8946 79.2652 31 79 31Z" fill="black"/>
<path d="M83 27C82.7348 27 82.4804 26.8946 82.2929 26.7071C82.1054 26.5196 82 26.2652 82 26V14C82 13.7348 82.1054 13.4804 82.2929 13.2929C82.4804 13.1054 82.7348 13 83 13C83.2652 13 83.5196 13.1054 83.7071 13.2929C83.8946 13.4804 84 13.7348 84 14V26C84 26.2652 83.8946 26.5196 83.7071 26.7071C83.5196 26.8946 83.2652 27 83 27Z" fill="black"/>
<path d="M87 23C86.7348 23 86.4804 22.8946 86.2929 22.7071C86.1054 22.5196 86 22.2652 86 22V18C86 17.7348 86.1054 17.4804 86.2929 17.2929C86.4804 17.1054 86.7348 17 87 17C87.2652 17 87.5196 17.1054 87.7071 17.2929C87.8946 17.4804 88 17.7348 88 18V22C88 22.2652 87.8946 22.5196 87.7071 22.7071C87.5196 22.8946 87.2652 23 87 23Z" fill="black"/>
<path d="M44 32C45.0609 32 46.0783 31.5786 46.8284 30.8284C47.5786 30.0783 48 29.0609 48 28V22C48 20.9391 47.5786 19.9217 46.8284 19.1716C46.0783 18.4214 45.0609 18 44 18C42.9391 18 41.9217 18.4214 41.1716 19.1716C40.4214 19.9217 40 20.9391 40 22V28C40 29.0609 40.4214 30.0783 41.1716 30.8284C41.9217 31.5786 42.9391 32 44 32Z" fill="black"/>
<path d="M50 26C49.7348 26 49.4804 26.1054 49.2929 26.2929C49.1054 26.4804 49 26.7348 49 27V28C49 29.3261 48.4732 30.5979 47.5355 31.5355C46.5979 32.4732 45.3261 33 44 33C42.6739 33 41.4021 32.4732 40.4645 31.5355C39.5268 30.5979 39 29.3261 39 28V27C39 26.7348 38.8946 26.4804 38.7071 26.2929C38.5196 26.1054 38.2652 26 38 26C37.7348 26 37.4804 26.1054 37.2929 26.2929C37.1054 26.4804 37 26.7348 37 27V28C37.002 29.6819 37.6094 31.3068 38.7112 32.5775C39.813 33.8482 41.3354 34.6797 43 34.92V37C43 37.2652 43.1054 37.5196 43.2929 37.7071C43.4804 37.8946 43.7348 38 44 38C44.2652 38 44.5196 37.8946 44.7071 37.7071C44.8946 37.5196 45 37.2652 45 37V34.92C46.6646 34.6797 48.187 33.8482 49.2888 32.5775C50.3906 31.3068 50.998 29.6819 51 28V27C51 26.7348 50.8946 26.4804 50.7071 26.2929C50.5196 26.1054 50.2652 26 50 26Z" fill="black"/>
<path fill-rule="evenodd" clip-rule="evenodd" d="M21.0149 0.000316259C20.8828 -0.00302454 20.7514 0.0201323 20.6284 0.0683705C20.5054 0.116609 20.3933 0.188964 20.2987 0.2812C20.2042 0.373436 20.129 0.483681 20.0777 0.605419C20.0264 0.727156 20 0.857956 20 0.990062V35.944C20 36.151 20.0649 36.3528 20.1856 36.5209C20.3063 36.6891 20.4766 36.8152 20.6727 36.8815L43.6839 44.6483C43.889 44.7174 44.111 44.7174 44.3161 44.6483L67.3254 36.8815C67.5218 36.8156 67.6926 36.6896 67.8136 36.5214C67.9347 36.3532 67.9998 36.1513 68 35.944V0.990062C68 0.832896 67.9625 0.677975 67.8907 0.538158C67.8189 0.398341 67.7149 0.277605 67.5872 0.185985C67.4595 0.0943656 67.3118 0.0345117 67.1563 0.0113026C67.0009 -0.0119066 66.8421 0.00224056 66.6932 0.0525624L43.999 7.71296L21.3068 0.0525624C21.2126 0.0206733 21.1142 0.00289729 21.0149 0.000316259ZM21.9795 2.36824L43.017 9.47004C43.0114 9.51233 43.0088 9.55493 43.0093 9.59755V25.9651H43.9942L43.9991 34.1488C43.9991 35.7468 43.0093 32.402 43.0093 34V42.3326L21.9795 35.2327L21.9795 2.36824ZM66.0205 2.36824V35.2327L44.9888 42.3326V34C44.9853 33.5613 44.1081 34.915 43.999 34.0744C44 32 43.9942 25.9651 43.9942 25.9651C43.9932 24.7181 44.9722 27.563 44.9791 25.9651L44.9888 9.59755C44.9886 9.55489 44.9854 9.51228 44.9791 9.47004L66.0205 2.36824Z" fill="black"/>
<path fill-rule="evenodd" clip-rule="evenodd" d="M26.2109 9.11867C25.9806 9.1208 25.7581 9.20324 25.582 9.35176C25.4059 9.50028 25.2871 9.70556 25.2461 9.93227C25.2051 10.159 25.2445 10.3929 25.3574 10.5937C25.4704 10.7945 25.6499 10.9496 25.8649 11.0322L38.4705 16.0484C38.5922 16.1021 38.7236 16.1307 38.8567 16.1325C38.9897 16.1343 39.1218 16.1093 39.245 16.0589C39.3682 16.0085 39.4799 15.9338 39.5736 15.8392C39.6672 15.7446 39.7408 15.6321 39.79 15.5084C39.8391 15.3848 39.8629 15.2525 39.8597 15.1194C39.8565 14.9863 39.8266 14.8553 39.7716 14.7341C39.7166 14.6129 39.6378 14.504 39.5398 14.414C39.4418 14.3239 39.3266 14.2545 39.2012 14.21L26.5956 9.19405C26.4737 9.14366 26.3429 9.11778 26.2109 9.11867Z" fill="black"/>
<path fill-rule="evenodd" clip-rule="evenodd" d="M26.2109 15.6831C25.9797 15.6841 25.7561 15.766 25.5789 15.9146C25.4018 16.0633 25.2823 16.2693 25.2412 16.4969C25.2001 16.7245 25.2399 16.9592 25.3539 17.1605C25.4678 17.3617 25.6486 17.5167 25.8649 17.5986L36.4705 21.6147C36.7145 21.7116 36.987 21.7075 37.2281 21.6035C37.4692 21.4994 37.6591 21.3039 37.756 21.0599C37.8529 20.8159 37.8488 20.5434 37.7448 20.3023C37.6407 20.0613 37.4452 19.8714 37.2012 19.7745L26.5956 15.7584C26.4737 15.708 26.3429 15.6822 26.2109 15.6831Z" fill="black"/>
<path fill-rule="evenodd" clip-rule="evenodd" d="M26.1945 22.2746C25.9642 22.2783 25.7423 22.3621 25.5671 22.5118C25.392 22.6615 25.2745 22.8676 25.235 23.0946C25.1955 23.3216 25.2365 23.5553 25.3507 23.7553C25.465 23.9554 25.6455 24.1092 25.8611 24.1905L33.4863 27.1564C33.6085 27.2094 33.74 27.2372 33.8731 27.2381C34.0062 27.239 34.1381 27.2132 34.2609 27.1619C34.3838 27.1107 34.495 27.0353 34.5881 26.9401C34.6811 26.8449 34.7539 26.7318 34.8023 26.6078C34.8506 26.4838 34.8735 26.3514 34.8694 26.2183C34.8654 26.0853 34.8346 25.9545 34.7788 25.8337C34.723 25.7128 34.6435 25.6044 34.5449 25.515C34.4463 25.4256 34.3306 25.3571 34.2049 25.3134L26.5797 22.3475C26.4574 22.298 26.3265 22.2729 26.1945 22.2746Z" fill="black"/>
<path fill-rule="evenodd" clip-rule="evenodd" d="M26.1665 28.8233C25.9365 28.8318 25.7167 28.9202 25.5449 29.0733C25.373 29.2263 25.2598 29.4343 25.2248 29.6618C25.1898 29.8892 25.2352 30.1217 25.353 30.3194C25.4709 30.517 25.654 30.6674 25.8707 30.7446L32.4586 33.1745C32.5806 33.2197 32.7104 33.2405 32.8404 33.2356C32.9705 33.2307 33.0983 33.2001 33.2165 33.1458C33.3348 33.0914 33.4412 33.0143 33.5296 32.9188C33.618 32.8233 33.6867 32.7113 33.7318 32.5893C33.7769 32.4672 33.7975 32.3375 33.7924 32.2074C33.7873 32.0774 33.7566 31.9496 33.7021 31.8314C33.6476 31.7133 33.5703 31.607 33.4747 31.5187C33.3791 31.4304 33.267 31.3618 33.1449 31.3169L26.555 28.8871C26.4311 28.84 26.299 28.8184 26.1665 28.8233Z" fill="black"/>
<path fill-rule="evenodd" clip-rule="evenodd" d="M62.7285 9.11869C62.6057 9.12128 62.4844 9.14667 62.3709 9.19364L49.7673 14.2097C49.6419 14.2542 49.5267 14.3235 49.4287 14.4136C49.3307 14.5036 49.2518 14.6125 49.1968 14.7337C49.1419 14.8549 49.1119 14.9859 49.1088 15.119C49.1056 15.252 49.1293 15.3844 49.1785 15.508C49.2276 15.6317 49.3012 15.7442 49.3949 15.8388C49.4885 15.9334 49.6003 16.0081 49.7235 16.0585C49.8466 16.1089 49.9787 16.134 50.1118 16.1322C50.2449 16.1304 50.3762 16.1017 50.498 16.048L63.1035 11.0318C63.321 10.9483 63.5021 10.7908 63.6149 10.587C63.7277 10.3832 63.7649 10.1461 63.7201 9.91752C63.6753 9.68892 63.5513 9.48345 63.3699 9.33726C63.1886 9.19107 62.9614 9.11393 62.7285 9.11869Z" fill="black"/>
<path fill-rule="evenodd" clip-rule="evenodd" d="M62.7285 15.683C62.6057 15.6856 62.4844 15.7111 62.3709 15.758L50.7673 19.774C50.5233 19.8709 50.3277 20.0607 50.2237 20.3018C50.1196 20.5429 50.1156 20.8155 50.2125 21.0595C50.3094 21.3035 50.4993 21.499 50.7404 21.6031C50.9814 21.7071 51.254 21.7111 51.498 21.6142L63.1035 17.5982C63.3225 17.5157 63.5051 17.3583 63.619 17.1539C63.7329 16.9496 63.7707 16.7115 63.7258 16.4819C63.6808 16.2523 63.556 16.0461 63.3734 15.8998C63.1909 15.7534 62.9624 15.6769 62.7285 15.683Z" fill="black"/>
<path fill-rule="evenodd" clip-rule="evenodd" d="M62.9615 22.0169C62.8339 22.0189 62.7079 22.0437 62.5899 22.09L54.6828 25.0643C54.5522 25.108 54.4322 25.1766 54.3299 25.266C54.2276 25.3553 54.1451 25.4635 54.0874 25.5842C54.0297 25.7049 53.998 25.8355 53.9941 25.9682C53.9902 26.101 54.0143 26.2332 54.0648 26.3568C54.1154 26.4804 54.1914 26.593 54.2883 26.6877C54.3853 26.7825 54.5011 26.8575 54.6289 26.9083C54.7567 26.959 54.8939 26.9846 55.0322 26.9832C55.1705 26.9819 55.3071 26.9537 55.4337 26.9005L63.3428 23.9263C63.569 23.8441 63.7578 23.6878 63.8758 23.485C63.9938 23.2822 64.0335 23.0459 63.9879 22.8177C63.9424 22.5895 63.8145 22.3841 63.6267 22.2375C63.4389 22.091 63.2034 22.0131 62.9615 22.0169Z" fill="black"/>
<path fill-rule="evenodd" clip-rule="evenodd" d="M59.5932 29C59.471 28.9997 59.3497 29.022 59.2356 29.0659L52.6477 31.4938C52.5257 31.5387 52.4138 31.6073 52.3183 31.6955C52.2228 31.7836 52.1456 31.8897 52.0911 32.0077C52.0367 32.1257 52.0059 32.2533 52.0008 32.3832C51.9956 32.5131 52.0161 32.6427 52.061 32.7647C52.1059 32.8866 52.1745 32.9986 52.2627 33.0941C52.3508 33.1896 52.457 33.2668 52.575 33.3213C52.693 33.3758 52.8206 33.4065 52.9505 33.4116C53.0804 33.4168 53.21 33.3963 53.332 33.3513L59.9199 30.9216C60.1387 30.8432 60.3229 30.6901 60.4402 30.4894C60.5575 30.2887 60.6005 30.0531 60.5615 29.824C60.5225 29.5948 60.4042 29.3867 60.2271 29.2361C60.0501 29.0855 59.8257 29.0018 59.5932 29Z" fill="black"/>
</svg>
